<svg width="584" height="583" viewBox="0 0 584 583" fill="none" xmlns="http://www.w3.org/2000/svg">
<circle cx="291.5" cy="291.5" r="291.5" fill="#A5D364"/>
<path d="M512.914 403.195L508.608 418.605L415.242 425.738L337.224 401.92L182.318 354.621L93.7948 327.598L71.5886 288.166C71.5886 288.166 78.7783 249.473 90.9677 218.823C92.6574 214.56 94.7966 209.655 97.2426 204.358C101.575 194.947 106.86 184.286 112.302 173.731C127.29 144.693 143.46 116.484 144.227 117.415L262.255 129C267.741 129.54 272.874 131.951 276.791 135.829C280.709 139.708 283.172 144.816 283.767 150.296L284.318 155.383L290.103 208.728L290.955 216.567C290.955 216.567 322.615 250.781 355.386 281.277C368.808 293.77 382.416 305.641 394.11 314.287C399.205 318.177 404.607 321.649 410.262 324.668C412.581 325.845 414.995 327.05 417.487 328.276C440.145 339.415 468.82 352.06 487.314 360.042C493.114 362.55 498.214 366.435 502.174 371.359C506.133 376.283 508.832 382.098 510.037 388.301L512.914 403.195Z" fill="#E4E4E3"/>
<path d="M512.914 403.195L508.608 418.605L415.242 425.738L337.224 401.92L294.119 383.582L362.425 347.225C362.425 347.225 406.855 362.196 431.768 366.604C449.201 369.69 477.015 366.28 493.81 363.623C502.258 369.391 508.089 378.259 510.037 388.301L512.914 403.195Z" fill="#ED5749"/>
<path d="M182.318 354.621L93.7947 327.598L71.5886 288.166C71.5886 288.166 78.7782 249.473 90.9677 218.823C92.6573 214.56 94.7965 209.655 97.2425 204.358L169.261 265.622L182.318 354.621Z" fill="#ED5749"/>
<path d="M394.11 314.287L357.574 334.863C357.574 334.863 321.203 316.392 281.434 280.358C241.665 244.324 223.765 189.483 223.765 189.483L284.318 155.383L290.103 208.728L290.955 216.567C290.955 216.567 294.838 220.767 301.297 227.525C304.533 230.921 308.41 234.953 312.775 239.434C316.761 243.527 321.163 247.987 325.826 252.665C329.606 256.452 333.574 260.385 337.662 264.372C356.238 282.501 377.182 301.78 394.11 314.287V314.287Z" fill="#ED5749"/>
<path d="M514.159 428.463C479.034 435.259 408.782 448.853 316.325 423.014C244.281 402.88 126.761 364.994 78.3807 349.248C72.4957 347.331 67.579 343.214 64.6573 337.758C61.7356 332.301 61.0348 325.927 62.7014 319.966L71.5886 288.166C71.5886 288.166 236.787 350.946 329.245 376.785C421.702 402.624 477.789 409.992 512.914 403.195L514.159 428.463Z" fill="#CACAC9"/>
<path d="M290.103 208.728C268.776 217.128 225.664 231.546 197.59 223.7C192.483 222.216 187.489 220.366 182.648 218.164C157.87 207.107 129.022 186.461 112.302 173.731C115.715 167.126 119.179 160.566 122.518 154.376C133.85 133.371 143.638 116.7 144.227 117.415L262.255 129C267.741 129.54 272.874 131.951 276.791 135.829C280.709 139.708 283.172 144.816 283.767 150.296L284.121 153.562L286.409 174.688L290.103 208.728Z" fill="#4E4E4E"/>
<path d="M286.409 174.688L182.648 218.164C157.87 207.107 129.022 186.461 112.302 173.731C115.715 167.126 119.179 160.566 122.518 154.376L284.121 153.562L286.409 174.688Z" fill="#ED5749"/>
<path d="M417.487 328.276L336.329 378.744L283.804 363.089C299.114 353.672 326.611 335.493 336.612 320.698C345.07 308.193 351.544 292.164 355.386 281.277C364.548 289.807 373.8 298.052 382.477 305.16C386.503 308.476 390.4 311.548 394.11 314.287C394.816 314.807 395.503 315.321 396.198 315.806C400.656 319.11 405.357 322.073 410.262 324.668C412.581 325.845 414.995 327.05 417.487 328.276V328.276Z" fill="#E5493D"/>
<path d="M522.15 428.069L520.905 402.801C520.883 402.424 520.835 402.05 520.76 401.68L520.767 401.682L517.889 386.781C516.436 379.3 513.182 372.285 508.407 366.346C503.632 360.406 497.48 355.721 490.486 352.695C474.606 345.842 444.467 332.624 421.021 321.097C418.555 319.889 416.174 318.696 413.882 317.532C408.747 314.926 402.098 310.456 394.115 304.243C384.75 296.954 373.552 287.258 360.833 275.422C353.592 268.689 345.692 261.092 337.344 252.84C329.533 245.123 321.263 236.745 312.766 227.942C306.151 221.083 301.133 215.75 298.617 213.062L291.717 149.436C290.901 142.138 287.61 135.34 282.391 130.173C277.173 125.006 270.342 121.783 263.036 121.039L145.423 109.495C144.752 109.388 144.07 109.366 143.393 109.431C138.58 109.901 136.81 112.927 130.218 124.185C126.095 131.228 120.863 140.599 115.489 150.571C112.219 156.635 108.756 163.188 105.191 170.065C99.1977 181.69 94.078 192.104 89.9804 201.003C87.3899 206.613 85.22 211.614 83.5343 215.866C71.6638 245.709 64.5773 282.19 63.7888 286.352L54.9964 317.814C52.7543 325.762 53.6799 334.27 57.5788 341.55C61.4776 348.83 68.0463 354.316 75.9048 356.855C123.546 372.357 242.144 410.589 314.172 430.718C408.449 457.066 480.873 443.052 515.679 436.317C517.57 435.951 519.265 434.915 520.454 433.4C521.643 431.885 522.245 429.992 522.15 428.069ZM502.182 389.818L503.484 396.554C471.913 400.323 424.498 393.639 356.223 375.794L379.736 361.172C386.16 363.16 393.357 365.315 400.622 367.345C411.148 370.287 421.798 372.964 430.374 374.481C447.317 377.48 472.445 374.946 491.699 372.043C497.146 376.576 500.851 382.858 502.182 389.818ZM276.946 161.599L277.82 169.616L182.825 209.425C161.719 199.46 137.819 182.788 122.537 171.418C124.167 168.309 125.77 165.276 127.334 162.347L276.946 161.599ZM205.603 217.223L279.615 186.208L281.486 203.458C263.094 210.289 229.479 220.846 205.603 217.223ZM98.4046 221.771C98.9495 220.397 99.5538 218.93 100.209 217.384L161.783 269.763L168.462 315.263C128.164 300.832 94.3285 288.182 80.7789 283.083C83.3519 270.911 89.5641 244.001 98.4046 221.771ZM185.525 321.34L177.176 264.461C176.893 262.541 175.923 260.788 174.445 259.529L107.077 202.221C109.475 197.164 112.152 191.703 115.108 185.836C133.691 199.561 157.862 215.861 179.403 225.464L179.536 225.521C184.687 227.864 190.001 229.831 195.436 231.405C207.048 234.65 220.769 234.482 234.591 232.527C246.687 254.218 260.619 272.288 276.061 286.286C291.045 299.83 306.962 312.305 323.695 323.616C315.112 332.268 300.835 342.998 282.721 354.343C255.11 345.5 222.455 334.411 185.525 321.34ZM343.24 325.181C349.524 315.889 354.725 304.89 358.679 295.15C364.482 300.392 369.926 305.132 375.01 309.37L365.659 314.638L373.51 328.579L388.543 320.113C393.284 323.653 397.54 326.56 401.384 328.871L335.08 370.102C333.854 369.759 332.638 369.43 331.396 369.083C322.811 366.684 313.148 363.833 302.545 360.572C318.699 349.743 335.392 336.788 343.24 325.181ZM417.955 337.406C432.991 344.696 449.981 352.396 465.127 359.085C453.699 360.018 441.888 360.274 433.162 358.726C423.113 356.948 409.605 353.33 397.85 349.908L417.955 337.406ZM294.103 231.581L278.416 240.415L286.268 254.357L305.561 243.492C309.99 248.046 314.335 252.463 318.596 256.741L304.929 264.437L312.78 278.379L330.402 268.456C335.846 273.79 341.083 278.825 346.053 283.504C342.587 292.952 338.341 302.095 333.358 310.839C316.993 299.827 301.435 287.661 286.802 274.433C273.96 262.795 261.794 247.353 251.237 229.399C262.208 226.809 273.017 223.58 283.61 219.728C283.966 220.565 284.461 221.336 285.076 222.006C285.128 222.049 288.511 225.703 294.103 231.581ZM261.466 136.961C264.131 137.233 266.685 138.167 268.897 139.678C271.109 141.188 272.908 143.228 274.131 145.611L136.05 146.299C141.49 136.494 145.577 129.519 147.901 125.814L261.466 136.961ZM318.478 415.309C246.743 395.261 128.403 357.111 80.8538 341.64C76.9256 340.369 73.6426 337.626 71.6944 333.986C69.7461 330.347 69.2843 326.093 70.4059 322.12L76.9413 298.735C93.1481 304.822 131.552 319.149 175.635 334.812C216.186 349.206 251.764 361.286 281.381 370.713C298.722 376.225 314.102 380.86 327.091 384.49C329.49 385.16 331.863 385.816 334.209 386.458C415.112 408.687 468.652 416.877 505.361 412.461L505.827 421.916C470.103 428.667 403.38 439.036 318.478 415.309Z" fill="black"/>
</svg>
